/* XPM */
static char *_f63029a8c32440ab3fdf9937c0e1140XGh2FdG4t8dVcZe6[] = {
/* columns rows colors chars-per-pixel */
"50 50 71 1 ",
"  c #747474",
". c gray50",
"X c #838383",
"o c #848484",
"O c gray54",
"+ c #8D8D8D",
"@ c #909090",
"# c #979797",
"$ c gray60",
"% c gray62",
"& c gray64",
"* c #A4A4A4",
"= c gray66",
"- c #ACACAC",
"; c #AFAFAF",
": c gray70",
"> c #B4B4B4",
", c #BABAB9",
"< c #C3C3BF",
"1 c #C7C7C2",
"2 c #C8C8C3",
"3 c #CBCBC6",
"4 c #CBCCC7",
"5 c #CCCCC7",
"6 c #CECFCA",
"7 c #CFD0CB",
"8 c #CFD1CD",
"9 c #D1D2CE",
"0 c #D3D5D0",
"q c #D4D6D2",
"w c #D6D8D3",
"e c #D7D9D5",
"r c #D9DBD7",
"t c #DADCD8",
"y c #DCDEDA",
"u c #DDDFDC",
"i c #DFE0DB",
"p c #DDE0DC",
"a c #E1E0DC",
"s c #E4E3DE",
"d c #E3E4DF",
"f c #E4E4DF",
"g c #E3E5E1",
"h c #E7E7E1",
"j c #E4E7E5",
"k c #E4E8E5",
"l c #E9E8E3",
"z c #EBEBE6",
"x c #ECEBE5",
"c c #EDECE6",
"v c #EBECEA",
"b c #EEEFEA",
"n c #EAEEEC",
"m c #EDEFEC",
"M c #F0EFE9",
"N c #EEF0EB",
"B c #EEF0ED",
"V c #F0F1EE",
"C c #EFF3F0",
"Z c #EFF4F3",
"A c #F0F3F2",
"S c #F0F4F2",
"D c #F6F6F2",
"F c #F0F5F4",
"G c #F4F5F4",
"H c #F9F9F6",
"J c #F5F9F8",
"K c #F8F8F8",
"L c #FBFCFA",
"P c #FBFCFC",
"I c #FEFFFF",
/* pixels */
"FCcttc33rzxr9336FIIFttccc.. ...   +++X   +++ .X+o.",
"Cmhtth336fhr93ryJHHBtthxc..oOO+ooO#$$+ooo##@oOO#Oo",
"chrrrr32:0rr93IIIccctrrhc o=&&===::::::===%%&&&=#+",
"chrrr3>>:13razIIFcccxzrhc X&%%%&&**=***&&&**====o ",
"chrrw1>:>13rdcIPFbbbcxrhx o*%%%&&&*=&*****===*==o ",
"chr31::>333rdcSFFFFFbxrrr.@::::*&====;::::==*&&&#+",
"tq331:13rhzxBSFFFccFyr3qr+#===*&&&*=&*=:::::;*&=o ",
"r0321>33tlxxBZFFSccSte29e+#===&&&&*=&*=;:;;;;*&=o ",
"36r>>3rtcyrrrrZScccc52::: O:============*&%%&%%&O.",
"KKKsaqrry65razbzyxxy,>18q+#===;;;;**;;;==*&&****o ",
"IIIcxtrrr43rdcxlrzzr>>3qt+#=*=;;;;**;;;==*&&====o ",
"cbFccctr333rdctrrrr333rhc+#&%%%&&%&&&&%&&%&&&;;;+.",
"czkdhDmvurr9rakkbtr9rrkbBo@=**&==&&&**&**&&&*=;:@o",
"chrryIIIFbz39rZFItrtxcFFF.+:::=::=&&======&&==*:$+",
"ttrzxcFFIMz333rpFttIIIFbc o=======*&==::::==::::+X",
"eerxccCSIbl334taZypIKKCvz o=**=***&&*=;;;;**;;;;+X",
"36rxccccFpr39rxccccFcxrrr o=&&=&&&%%%%&&*=&&&==&#+",
"rixcccttcytzmZcccccFytr73.+======;;;;;;;;===;::;$+",
"tacccxttcpycVFccxxcStrr63X+======::;;::;;=*=;;;:$+",
"cccczrrtFIIIIIclrrtctr333+#&&&&==::;&*=&&&%%%&&=#+",
"39txzr56cKIFVcttr53,>>30rX@:=*&&*=====:===**&*==+X",
"37tcxt33cLIFBxtrr31:>>3qr.+:==&**====;:=====&*==+.",
"rhIIIF33cAFFkrre3>::13rrr X&&&=:::::===:::==&&&&X ",
"GFJVVNqqcSSbgr68q<<<33rjv..X###@@+#$###++OoooOO#X.",
"IPFcccttcSScdr33r33333rnF.. +++X..+++++X.    .X+o.",
".. ...   +++X   +++ .X+o.FCcttc33rzxr9336FIIFttccc",
"..oOO+ooO#$$+ooo##@oOO#OXCmhtth336fhr93ryJHHBtthxc",
" o=&&===::::::===%%&&&=#+chrrrr32:0rr93IIIccctrrhc",
" X&%%%&&**=*&&&&&**====o chrrr3>>:13razIIFcccxzrhc",
" o*%%%&&&*=&&&***======o chrrw1>:>13rdcIPFbbbcxrhx",
".@::::*&=====;:::===&&&#+chr31::>333rdcSFFFFFbxrrr",
"+#===*&&&*=&**::::::*&=o tq331:13rhzxBSFFFccFyr3qr",
"+#===&&&&*=&*=;:;;;;*&=o r0321>33tlxxBZFFSccSte29e",
" O:============*&%%&%%&O.36r>>3rtcyrrrrZScccc52:::",
"+#===;;;;**;;;==*&&****o KKKsaqrry65razbzyxxy,>18q",
"+#=*=;;;;**;;;==*&&====o IIIcxtrrr43rdcxlrzzr>>3qt",
"+#&%%%&&%&&&&%&&%&&&;::+.cbFccctr333rdctrrrr333rhc",
"o@=**&==&&&**&**&&&*=;:@oczkdhDmvurr9rakkbtr9rrkbB",
".+:::=::=&&=====*&&*==:$+chrryIIIFbz39rZFItrtxcFFF",
" o=======*&=;:::;==::::+XttrzxcFFIMz333rpFttIIIFbc",
" o=**=***&&*=;;;;**;;;;+XeerxccCSIbl334taZypIKKCvz",
" o=&&=&&&%%%&&&*=&&&==&#+36rxccccFpr39rxccccFcxrrr",
".+======;;;;;;;;===;::;$+rixcccttcytzmZcccccFytr73",
"X+======:::;::;;=*=;;;:$+tacccxttcpycVFccxxcStrr63",
"+#&&&&==;;;&*=&&&%%%&&=#+cccczrrtFIIIIIclrrtctr333",
"X@:=*&&&*====:===**&*==+X39txzr56cKIFVcttr53,>>30r",
".+:==&**====;:=====&*==+.37tcxt33cLIFBxtrr31:>>3qr",
" X&&&=:::::===:::==&&&&X rhIIIF33cAFFkrre3>::13rrr",
"..X###@@+#$###++OoooOO#X.GFJVVNqqcSSbgr68q<<<33rjn",
".. +++X..+++++X.    .X+o.IPFcccttcSScdr33r33333rnF"
};
