/* XPM */
static char *nether61709034906[] = {
/* columns rows colors chars-per-pixel */
"50 50 139 2 ",
"   c #221A15",
".  c #241E1E",
"X  c #2A221E",
"o  c #3D2914",
"O  c #272121",
"+  c #2B2324",
"@  c #2E2829",
"#  c #352A23",
"$  c #3A2D24",
"%  c #302728",
"&  c #322B2C",
"*  c #382F2F",
"=  c #3F3127",
"-  c #3C322C",
";  c #342E30",
":  c #353132",
">  c #3C3332",
",  c #3A3739",
"<  c #3C393C",
"1  c #43301C",
"2  c #4B3B24",
"3  c #42362C",
"4  c #45382E",
"5  c #4A3B2D",
"6  c #533C21",
"7  c #50372F",
"8  c #513F2D",
"9  c #413633",
"0  c #433A33",
"q  c #4B3B34",
"w  c #453E3F",
"e  c #4B3F3F",
"r  c #513730",
"t  c #533B34",
"y  c #563D39",
"u  c #5D4525",
"i  c #54412C",
"p  c #5D472F",
"a  c #4B413B",
"s  c #594334",
"d  c #5B4A35",
"f  c #574339",
"g  c #5C453E",
"h  c #664927",
"j  c #61462D",
"k  c #634C2E",
"l  c #6A4F2E",
"z  c #6F522F",
"x  c #71532E",
"c  c #664531",
"v  c #644A31",
"b  c #654D38",
"n  c #714738",
"m  c #7A4F3B",
"M  c #6E5233",
"N  c #6E513D",
"B  c #745632",
"V  c #775833",
"C  c #7A5A34",
"Z  c #745239",
"A  c #7A553A",
"S  c #7F5E39",
"D  c #3F3D40",
"F  c #403E41",
"G  c #434144",
"H  c #4B4344",
"J  c #474548",
"K  c #4A464A",
"L  c #4E494D",
"P  c #514544",
"I  c #574845",
"U  c #5C4C47",
"Y  c #534B4C",
"T  c #5B4C49",
"R  c #534C50",
"E  c #5A4F50",
"W  c #555255",
"Q  c #5A5555",
"!  c #59575A",
"~  c #5D5A5B",
"^  c #604F48",
"/  c #6C5545",
"(  c #6C5649",
")  c #725645",
"_  c #7C5440",
"`  c #7C5A44",
"'  c #73544B",
"]  c #745A4E",
"[  c #635554",
"{  c #695954",
"}  c #605C5B",
"|  c #765D52",
" . c #7D6358",
".. c #656565",
"X. c #756762",
"o. c #7D6E67",
"O. c #7B6D68",
"+. c #8C553F",
"@. c #89583D",
"#. c #846239",
"$. c #835443",
"%. c #8D5740",
"&. c #845E4F",
"*. c #905740",
"=. c #915A43",
"-. c #846549",
";. c #8A674B",
":. c #956647",
">. c #966048",
",. c #956B4A",
"<. c #986D4D",
"1. c #836658",
"2. c #8C6758",
"3. c #9E6A52",
"4. c #966E5C",
"5. c #986F5D",
"6. c #9B725E",
"7. c #A07452",
"8. c #AB7B56",
"9. c #A7755E",
"0. c #AF7F5B",
"q. c #B17F5B",
"w. c #826C65",
"e. c #847069",
"r. c #9B7360",
"t. c #9D7E71",
"y. c #A47762",
"u. c #A77861",
"i. c #AB7B64",
"p. c #AF7F69",
"a. c #B3825C",
"s. c #B9855C",
"d. c #A9826A",
"f. c #A68679",
"g. c #B38976",
"h. c #AC8D80",
"j. c #B59284",
"k. c #B99586",
"l. c #BA9688",
/* pixels */
"A v & m Z * Z Z 9 8.a.,.=.A > 9 A # * ,.a.a.% p Z 9 * & q l.9 9 +.+.=.,.b > B b > q.0.% y.u.%.r + . ",
"v s q A @.( b b F 7.8.:.A b a a A f f ` 0.0.> c @.* > 9 T l.I P +.+.+.<.) e A N e a.a.w r.y.=.y @ . ",
"& q Z %.=.s.~ ! Q ;.,.%.' ! Q Q Z ,.,.! i.i.K n +.7 +.p.p.l.l.k.=.[ ~ l.p.<.*.$.Q j.j.p.~ ! l.{ & . ",
"> w Q 9 F k.L K +.+.=.,./ G Z N H 0.a.J u.i.+.t . t +.[ F F j.j.H L L j.j.j.H I %.j.j.P K K l.X.& . ",
"> w Q w T l.E Y +.%.%.<.' H Z n H a.s.P r.y.=.t . t %.Q < w j.j.H Y Y j.k.k.K Y +.j.j.F K H l.| ; . ",
"- g +.i.p.l.l.k.=.I L l.d.,.=.$.L j.k.i.G < l.U . > F ! F =.i.u.F P H =.u.k.p.5.L i.i.H F w i.{ & . ",
"> b +.Y K H j.j.Y H H k.k.j.R T +.k.j.G > > l.U . > w 5.5.9.T ^ 5.5.5.=.| Q j.f.K =.=.5.J > q 1.r.. ",
"> I +.J J F j.j.Y H H j.l.k.E ^ +.j.j.....Q l.-.V A B u.i.u.Q B p.u.i.%.' Y k.h.L %.=.p.H > > 2.i.. ",
"> w W F F =.i.u.F P K *.y.l.p.5.k u.9.~ ..Q d.Z h h u 9.u...W j p.j H J w.k.l.h.R R E p.*.%.> L : & ",
"* e W 5.5.u.^ T 6.6.6.*.| ! j.f.2 =.>.4.} G i ` 3.1 1 ) | ~ J 1 3.8 K o.t.g.e.O.R | | | *.$.D F & O ",
"9 F ~ u.i.u.H F i.u.u.%.' Y k.h.J @.+.p.Y , J &.u.> w ! D K G a =.H Y j.g.i.Y Q W y.i.F $.%., F & . ",
"9 F ! u.u.F F F p.E L L w.l.l.h.J G w p.%.@.: & . - w , : K : : < L L p. .K L L L %.*.F F , D L ; . ",
"* e ! | | K F H 3.Y L w.t.g.w.X.J ] ] ( @.@.: : + : F , : F : D F Y L r.| R K L K _ _ F F F D R ; + ",
"* e W K K L L L *.Y L l.g.u.L K G 9.u.d @.@.i - $ $ i d d 0 d 0 w L L L | i.J L K F K K F F , F > & ",
"> w W L L L W ! L F F p.| F K J G +.@.#.S S #.#.#.#.S S S S S V w L K F J J F K K F F F F F D L > % ",
"* w W R L L W W L F F u.| P J J w A @.C C C C C C C C C S C V k 0 L J F F F D J J F F F F D , F : @ ",
"% F E F F E F F F F D D | p.F F < - B V C C v - C M 5 5 5 V C u 9 F F F F F F F F D D : > > > L % . ",
"> F ! R [ F E [ F F F D F F F F < - #.C C l i & C C C C 5 k C z r F F E F F D F F D D D > & % L ; . ",
"> F ~ R F F F F E F F D D > F F < - #.C M 4 V - C C C B - V C z r F F F F D ; F D D ; D : % % E ; . ",
"% > F F F E F F R F D D D D F F < = #.C 3 5 i # p C C - p C C p F F F F D D D F D D * & % % & R & . ",
"% > F F F * F D F F D * ; % & & & $ B C M z M & M V - k C C C u % F F F 9 ; ; ; % % & % % > & F : % ",
"* > F F F F 9 F F F D 9 9 * % % @ $ #.C C V V - C p # - - p C x * F 9 F > ; % > % % & ; % > F R D % ",
"% , E F F F F F F F F F F F F F K > k k k k k k k k k k k k k k r F F F F F F F F F R F F R F F % . ",
"% ; ; > ; % F ; F 9 F > ; ; F ; , # 6 6 6 6 6 6 6 6 6 6 6 6 6 6 X F F F ; F % ; D ; F > ; ; > ; O . ",
"; % . . . . . . % % % . . . . . % . 1 o o o o o o o o o o o o o   % % % . . . . + % % % . . . . . . ",
"> ; ; > > > > > 9 r 9 9 > * 9 9 3 % % 9 > * & + X > : & - - > > > F > r > * > > > 9 & % > > > % O . ",
"; > > F F F F F F F F F F F F F F 9 9 F F F > + . : : > F F w w F F F F F F F F F F F 9 F F F D % . ",
"% > F ! [ ! [ [ ! ! ~ ! ! ! [ ! ! L L ! ! ~ L & . @ : J ~ ! Q Q ! ! [ ! [ ! [ ! ! [ R F ! [ ! L % . ",
"> F ! F F F F R R R R R R F R F F ^ F F J J L ; . 9 F ! < < K K E E R W ! F F F F F E F L F L L ; . ",
"> F ! F F F F F F R F R F F F F F F F T J J L & . 9 F ! < F J J F F R F R E F F F F F T F F F W & . ",
"> F ~ F F F E F F E R R R L R R [ F F F < < L & . * w Q J F J H F E F R R F F E F [ I F F D D L ; . ",
"r F ~ E F F T F E F F F R R E F R F E F > > K % . 9 F Q J J F H F [ F F R R ! F E F E F F > , F & . ",
"* F [ F K F F F W F F E R L L L R F F F F D F ; . 9 F ! R F F F F [ F F L L L L L L K K D D ; F % . ",
"* F ~ F F L F F F R F L W ! L L R W W F 9 * F D % 9 F ! F F R F F F F E L W ! L L L L L D D F F D % ",
"9 F ~ F K F F F F F R L L R ! R R F W F D ; F ; + * F [ F R F F F F E R L L L ! W L K L F D D F ; O ",
"> F ~ F F F F F E R R R L L ! ! F R F F D D F ; . 9 F ! F F F F F F W F L L L ! ! F K F F F F F % . ",
"> F ! L F F F F L L L L L L L L F F F R F F F ; . * F [ F F F F F ! R L L L L L R F F F F F F F ; . ",
"r F ~ F L L F F L L L L L L R F F F E F F F F * + 9 F ! R F F F F R L R R F L R R R F F F F F R ; + ",
"> F [ L F L L L L L R K L F R L F F F F F F F F % * F ! F F W R R F R E F R L R L F F R F F F F ; % ",
"> F [ F R R ! ! L F F F F F L F F F F F D D F F % 9 F [ E R F ..! R F F F F F F F F F F F F F F D % ",
"; F ! L F R E ! L K F F F F L F D D F F F D F F % * F ~ E F R [ ! R F F F F F F F F D D D D ; F ; % ",
"% , L R E R F F L F F F F F F F D ; D ; > % F ; . % w F R R R F F R R F F F F D F F D ; ; D F F ; . ",
"> F ~ R R F R R F L F F D F F F D D D > % % F ; . > F ! R F F E F F F F F D D D F D D D 9 % % F ; . ",
"r F ~ F E F F R F L L F D F F F D ; D > % % R > . * F ! L R F F F E F F D D D F F D D D * * F F & . ",
"% > F F D F F F F F F D , D F D D ; ; % % % F ; . % w F ; D F F E F F F D D D F F D 9 9 % % % F & . ",
"% > R F F > F F F D D , ; % ; % ; % % % > > R > % % w R D D F F F F F F 9 ; + % % % % % % * F F ; % ",
"% < F F F > F F D D D ; ; ; % % % % % % > > R < % % > F F D , F F F F F F ; % & % % % % % F F F D % ",
"% < R F L F F F L F L R F F L L L L R R R F F % O % w R L F F F F ! F F W F F R R F E E F F [ F % . ",
"; % ; ; % % % ; < > > ; % ; % ; , > , ; % ; ; O . % ; ; % ; % % ; F F * % ; % ; ; F * 9 % ; % ; + . ",
"% % . . . . . O % % % O . . . + % % % O . . . . . % + . . . . . . % % % . . . . + % % % . . . . . . "
};
