/* XPM */
static char *nether91709088024[] = {
/* columns rows colors chars-per-pixel */
"50 50 96 2 ",
"   c #241E1E",
".  c #26201F",
"X  c #272121",
"o  c #2B2424",
"O  c #2E2829",
"+  c #302728",
"@  c #322B2C",
"#  c #382F2F",
"$  c #37302E",
"%  c #3A312E",
"&  c #352E30",
"*  c #373132",
"=  c #3B3332",
"-  c #3C3B34",
";  c #3C393C",
":  c #46332D",
">  c #443C35",
",  c #4B3B37",
"<  c #463E3F",
"1  c #493F3F",
"2  c #3C4135",
"3  c #3F413C",
"4  c #494234",
"5  c #43433C",
"6  c #4C473C",
"7  c #44493C",
"8  c #4B4A3F",
"9  c #52423B",
"0  c #5D463E",
"q  c #554E3D",
"w  c #57503D",
"e  c #60453A",
"r  c #403E41",
"t  c #434144",
"y  c #4B4344",
"u  c #474B45",
"i  c #4B4B44",
"p  c #474548",
"a  c #494649",
"s  c #4E494D",
"d  c #514644",
"f  c #534C43",
"g  c #5E4C46",
"h  c #524C4A",
"j  c #5A4E4C",
"k  c #4C5245",
"l  c #4C5B45",
"z  c #4F514B",
"x  c #4F5A4A",
"c  c #565342",
"v  c #555944",
"b  c #52534B",
"n  c #5F524E",
"m  c #555B4B",
"M  c #514C50",
"N  c #555354",
"B  c #5A5553",
"V  c #565C52",
"C  c #585C56",
"Z  c #575658",
"A  c #59575A",
"S  c #5B5A59",
"D  c #624C46",
"F  c #64524C",
"G  c #6A544B",
"H  c #6E584B",
"J  c #735246",
"K  c #71564B",
"L  c #795649",
"P  c #735A4D",
"I  c #7C5B4D",
"U  c #645652",
"Y  c #675954",
"T  c #6F5C54",
"R  c #645958",
"E  c #735D53",
"W  c #7D5F51",
"Q  c #54634B",
"!  c #566C4C",
"~  c #7F604F",
"^  c #6E615C",
"/  c #7B6354",
"(  c #72625A",
")  c #7B655A",
"_  c #7F695C",
"`  c #736661",
"'  c #815E4F",
"]  c #846454",
"[  c #816758",
"{  c #856B5B",
"}  c #896C5C",
"|  c #877165",
" . c #8C7364",
".. c #937768",
"X. c #92786A",
"o. c #998072",
/* pixels */
"= # + = = = = = , : = : = : r : : + @ : r : + X   # # + = : : # , ' J e : & 0 ] ' ] } [ ' E ) D :   ",
"# * = r 1 < 1 < r r r r r r r r r ; ; r r r r o   # & r r r r r d { ' L J r D ] r J ' [ D r K K ,   ",
"+ = p A A A A A A A A A A R A R ^ r r A A A r &   + = r R R E ` ` { ' ' L R R ) A K ' | T U R U ,   ",
"= 1 A ; ; p p p M M r M r r r r r j r r M r M &   = r R r r ..X.X.} { ] ' r r r r G ' | I G r M &   ",
"= < A < ; a p p j M M M p t a a r j r r M r M &   : r A D ] o...} ' j U { K D r r r F ] ] U r M &   ",
"# < A r t a y y r M r j a p s s A r j r r r r &   r r R U } X.] G G D K I ' K D r A r U D r r M &   ",
"= 1 A p p t y y M r r s s s s s r r M r r = r &   = r R T | { j r F L I L { W J R r r M r : = r O   ",
"= < A p p r 1 y M r s s s s s s A r r r : : r =   = r A r r r r r J { { { [ { | ] R j r r r = r @   ",
"% < A r r a r r y a p s N A s s M M M r r = r r + = r R r r r r r ' } W U R ^ [ [ T U M r : r r * + ",
"= 1 A r p r r p y s s s s M Z M r M r M r r r & X = r A r r r r s ] } W s M U E [ E G M r r r r & X ",
": 1 A r r r r r p s s s s s A Z r M r r = r r =   # r R r r r r d } } R s s s A E K E r r r r r @   ",
"= r A a a r r r s s s s s s s s r r r r r = r &   = r R A r r r r N j M s s s s j r r r r r r N & . ",
"= r A p p p r y s s s s s s s a M r M r r = r = + = r A r r M r r M M s s s s M M M r r r r r r & o ",
"= 1 A a a s s s s s M s a r s s r r M r r = r r + = r A r M r A s s s s r a r M r r r M r r = r = O ",
"= < A s s s A A s r r r r r s a M r r r r r r = & = r R r A A R A s a r r r r M r s r r r r r M * & ",
"# < N s s s M N s r p r r r a r r r r r r r r & + # r R M r M M A M r r a r r r s r r r r r r r * O ",
"+ = s s M M d r s p t r r t t r r ; ; = : & r & X & r r r A r j r j r r r r r r r r = ; = = & M &   ",
"= r Z s M r s s p p p ; ; ; r r ; ; ; = @ @ M *   & r A U r j r A r r r r r r r r r ; ; & & @ r @   ",
"= r Z s d r a s r y p ; ; ; t r & r ; & @ + r &   : r A r A r M M r r r r r r r r ; ; = : + & A @   ",
"@ : s < r y p p a p r ; ; ; r r r r & + + ; r &   @ ; r r r r r r M r r r r r r r ; : & @ + + r &   ",
"+ = M ; ; = r ; ; ; ; = & @ @ @ + + + + & : M ; + + r A r r # r r r ; ; & & & : + @ + + + & & r * O ",
"@ = M ; ; * ; ; ; ; ; = @ O O O + + & & & : r : + + = r r r = = r r ; ; : & + & + + & & + : ; M ; + ",
"+ ; s r p p p p s M s s a p s h r r r r r r r & o + r r r r r r r r M r r M r r r r M r r M r r O   ",
"@ + & & @ @ @ & = = = @ & O & # r r r & ; & ; o X + & & & & & # & = r ; & & + & ; ; r & * & ; & o . ",
"+ o             @ + @         X @ + +     X       + +             + + + X       X + @ +       X     ",
"= & + < : = = = = = % : = * % = : @ @ % = = + X   : # + # = = = r : : & = : = = : = @ + = = = @ X   ",
"& = * r r r r r < < 1 t i i i 8 y - ; < < < ; o   # # r r r r r r r r r r r r r r r > = < < r = O   ",
"+ = r A R A A A A A A S ! ! ! Q Q s s A A A s O   + = r R A A R A A R R A A R A A A s s A A A s @   ",
": r A r r r s r s s s b ! ! ! ! Q i y a p p s &   : r A r r r r r A r A M r r M r d r g p p p s &   ",
"= r A r < r r s d M s M ! ! ! ! Q i y a p t s @   r r A = r r r M r n r M s r r s r r r p p t s O   ",
"= r A r r s d r r M h b ! ! Q m v i y k k k b < + = r R r r M r r D M j M r r M r M g r r ; ; s &   ",
": r R r s r r g s y y b Q m m c q i p ! ! ! ! B < = r R M r r j r M r r M M M M j M j r r ; = p O   ",
"= r R m Q Q m m s y y s z b w f h u p ! ! ! ! m > : r A p p r y y M y y s s s s s s a p t = * a O   ",
"= r S ! ! ! ! Q i p p s N N q h s s s ! ! ! ! m 5 = r A r p p r r y a a s N A s s s s s t - * a ; O ",
"* < C ! ! ! m m i a Q Q M h v b p p p m Q m m w : = 1 A r t t t r p a s Q m m V N p p p p ; ; p @ X ",
"= < C ! ! ! Q m s s ! Q s h m V p p p m m m m w % = 1 A t t r r r p s s ! ! ! Q V p p p p ; ; p @   ",
"% 1 Z m m m c q h s Q Q ! ! Q b p x Q p ; w f # . * < A a t r ; ; h s M ! ! ! Q z p 3 t p ; ; s &   ",
"= 1 C z m c q f h b Q Q ! Q Q z p x Q p ; c c 2 @ = < A p a p p r s s s ! ! ! m k p u u i t 3 s & o ",
"= < A p d q h s m Q V Q Q m s a t x Q t ; Q Q ! 7 % 6 A p p s s M s s h Q m m q h t Q ! ! Q l p = @ ",
"% 1 S m m v V N m m i k m m z a t k Q p 3 u x ! 7 % < A Q Q Q Q C s t r p i c i u t Q ! ! Q z p * O ",
"& < Z ! ! Q b N b m t p m m m i < k m r < - s Q 5 % < Z ! ! ! Q Q s u u r i c t t r m ! Q m b p * O ",
"+ - s m m Q d y h m r t i b b i ; k m = = # z Q 8 7 - s ! ! ! m m a Q ! t i m t r ; b m m w 6 s @   ",
"= < A s b b h s q q t ; ; t m s ; h m = + + z Q Q Q i A Q Q Q v f y x Q x Q Q r r ; ; 5 w > % i &   ",
"* < A s b m h s c m a ; ; 5 Q k ; b m % + l Q Q 7 2 6 A B m m w q y m Q ! ! Q 5 r ; ; 5 q % O h @   ",
"@ ; s ; u m a p b m t ; ; 5 Q k ; i m + O ! ! Q 2 @ - s ; 5 q y p p b m Q k ; t k Q m m Q - O a &   ",
"+ = h ! Q m t ; i m Q l $ - Q Q Q v w + * Q m = O @ = s ; < v i 6 p i i m h 5 O 5 m 7 5 5 % % s = O ",
"+ = b ! Q m < ; b m Q k $ - Q Q ! v q + * Q m - @ + = s ; 5 Q v c m 5 ; m m m + 5 m - O O = = s ; + ",
"+ - z Q z p p a h a m m p p s x Q b s s s m b @ . + ; s p p p p y q a s s h m a b m s s s s s p @   ",
"@ @ - Q 5 O @ @ ; 5 v i # @ - u Q > - @ & m i o   + @ @ @ O O @ = c > = # 5 Q @ 5 m < - @ & @ O X . ",
"+ + # b -   X X i m q 4 . @ m m m = +   . b i .   + O     .     @ m - @   2 Q X - m = +             "
};
