/* XPM */
static char *nether81709087176[] = {
/* columns rows colors chars-per-pixel */
"50 50 123 2 ",
"   c #100F0E",
".  c #12100F",
"X  c #161313",
"o  c #191615",
"O  c #1E1D1B",
"+  c #231E1E",
"@  c #21211F",
"#  c #211E20",
"$  c #252323",
"%  c #2B2324",
"&  c #292729",
"*  c #2D292B",
"=  c #302728",
"-  c #322B2C",
";  c #382F2F",
":  c #31302F",
">  c #39302F",
",  c #262D3D",
"<  c #2A2F3E",
"1  c #312E31",
"2  c #2E313E",
"3  c #353235",
"4  c #3B3333",
"5  c #373439",
"6  c #393639",
"7  c #3C3A3C",
"8  c #433735",
"9  c #4E3B37",
"0  c #463E3F",
"q  c #523D37",
"w  c #563F3A",
"e  c #634237",
"r  c #63463C",
"t  c #724B3F",
"y  c #2C3241",
"u  c #323643",
"i  c #393740",
"p  c #353945",
"a  c #3C3C43",
"s  c #343949",
"d  c #3B3D4A",
"f  c #373E51",
"g  c #393F52",
"h  c #413E41",
"j  c #483F40",
"k  c #3E414D",
"l  c #3E4453",
"z  c #434144",
"x  c #4B4244",
"c  c #464548",
"v  c #4A464A",
"b  c #4E494D",
"n  c #544542",
"m  c #5C4942",
"M  c #524B4D",
"N  c #5A4C4D",
"B  c #434652",
"V  c #464955",
"C  c #4B4B54",
"Z  c #414758",
"A  c #4B4C59",
"S  c #524C51",
"D  c #555255",
"F  c #595055",
"G  c #50525F",
"H  c #59575A",
"J  c #5C595A",
"K  c #604F4A",
"L  c #6E5047",
"P  c #63544F",
"I  c #705147",
"U  c #7B5142",
"Y  c #70554A",
"T  c #655654",
"R  c #6E5752",
"E  c #6B5B58",
"W  c #7A5E54",
"Q  c #725E59",
"!  c #796056",
"~  c #77605A",
"^  c #7C635A",
"/  c #484F64",
"(  c #495064",
")  c #5B5864",
"_  c #635C64",
"`  c #756666",
"'  c #8C553F",
"]  c #8D5641",
"[  c #8E5841",
"{  c #825A4C",
"}  c #895F4F",
"|  c #905842",
" . c #905D48",
".. c #805F51",
"X. c #96604A",
"o. c #846456",
"O. c #8A6355",
"+. c #8B695C",
"@. c #916552",
"#. c #9E6953",
"$. c #916D5C",
"%. c #A5735C",
"&. c #876C60",
"*. c #8D6E61",
"=. c #846F6A",
"-. c #906E61",
";. c #967262",
":. c #93776E",
">. c #937A74",
",. c #9B7E75",
"<. c #A67964",
"1. c #AB7C65",
"2. c #9B817A",
"3. c #AE826E",
"4. c #A18277",
"5. c #AC8577",
"6. c #AF8977",
"7. c #A28479",
"8. c #B38977",
"9. c #B68F80",
"0. c #B79384",
"q. c #B89587",
"w. c #BB9788",
/* pixels */
"z z z z h 6 h z z z z z z z z j z z h 6 5 7 z : O e ' r m P 4.2.x S y q.9.6.w K t 5.,.K 8 8 q.W % + ",
"z 7 6 7 7 1 7 7 h 6 6 6 6 6 6 6 6 7 6 : 1 3 a & o e ' 9 j j 2.:.f / y q.w.q.b H | 1.2.h j c q.` % + ",
"z 6 * 3 3 * 3 3 3 * * * & * * & * 3 : * * * 3 $ . - 4 c T [ %.;.A V H | <.w.1.-.A ;.*.s H T 1.` - + ",
"z 6 * o X X X o O o o O O O O O O O O o 6 7 * O o > j ^ o.#.o.! Q Q W | O.=.8.:.j } @.R S b W ..Y + ",
"z 6 * X o + + $ $ @ @ & $ $ & $ @ & $ o 5 7 * @ X > x ;.1.1.T ) 1.1.<.| L b q.>.f U X.1.T j j ^ 1.+ ",
"z 5 * X + z z h z k z z z z k 7 6 z 5 @ 6 z 6 $ X 4 0 ;.$.x v J <.W u p =.q.w.>.d A j 1.X.] i S > + ",
"z 7 1 X + z 7 7 6 7 7 6 7 7 7 3 * 3 : O : 6 5 $ X 4 j &.o.c z D %.W y S :.9.,.` g ) N *. .] 8 v - + ",
"h 7 5 X $ z 5 3 5 3 3 3 3 3 3 : * 3 : O : 7 3 $   8 0 H c c i h ] L y q.6.1.b c h :.-.h U ] > j - + ",
"6 6 3 O $ z 3 * 6 - * * * * * * & 3 - + 6 a * O X > 0 H h z h y z S y 3.*.E H M B { { b n q > c 3 - ",
"h 7 6 o O 3 6 7 k 7 7 7 7 7 7 6 3 1 & o 6 h 1 $ X 8 0 H h h i y l / , <.^ S S D k t U c c 7 7 c - $ ",
"z 7 3 o o * 7 z z z z z z z z 7 5 * $ X 6 h 5 $ X > 0 J z h h a k l z v ^ 1.b A a , B v c 7 7 c - + ",
"z 7 6 + @ 6 z 6 o 6 z z z z o * z 1 $ O 6 h 6 $ X ; 0 J c c h 7 k l b b T ^ b l u , k B c 7 7 b ; + ",
"z 7 6 O @ * 7 6 o 3 z 7 7 7 o & 7 1 $ o 6 7 1 $ X 4 0 H c c c c 5 y B b v v B l k a y u z 7 7 v > % ",
"z 0 6 O $ * 7 6 o 3 z 6 6 6 o $ 5 1 $ X 6 7 * # X 4 0 H c c b B p , B v v v z l B z , 2 z 7 6 c 3 = ",
"z 5 * O @ * 3 5 6 6 6 6 6 3 6 3 5 1 $ O - 3 * + X ; 0 H b b b l p , l l k h a , 7 k , 2 c 0 7 c 4 - ",
"z 6 3 O $ 5 : : - * & & & & & * 1 1 & O 3 7 1 # X ; 0 F b M B l B k y 5 z h a , u V s p z 7 6 v 4 * ",
"z 7 3 O $ z : * * @ O O O O O $ & 3 1 X 6 h 6 $ X = 3 M b b v l c b , y h h a , f ( l l 4 8 > M - + ",
"z 7 6 O $ 7 3 3 3 : : & * 1 1 * * * $ X 6 7 * $ X 4 0 H b b h , a c , y 7 7 7 i k l a a > - = v 1 + ",
"z 7 3 O $ * : : 1 1 * $ * * * & $ $ # X 6 7 * O X 4 0 H b b h , s C s a 7 7 7 z h k 6 7 > = * M - # ",
"5 : & o o @ O O O O @ X o @ X X X X X X 5 i * # X = 4 b 6 i h , f / l l 5 7 7 h h 7 4 > = * * M ; + ",
"* * * 5 5 6 6 6 1 5 6 3 3 6 6 3 1 1 3 - a 7 & # X - 6 b 7 7 4 5 d Z a a 4 > - - - - = = * ; 4 v 4 = ",
"$ * * 7 7 a h 7 3 7 h k 0 a 7 6 5 7 7 2 7 6 * # o - 4 b 7 6 4 7 d d 7 7 4 - * = * * * = = 4 4 b 4 - ",
"O @ * * & & 3 3 * 3 6 6 1 * * & * * * * * * * $ O - 4 M c c v B c f v C M v c b b M b b b b b c - + ",
"O @ $ O # $ $ $ o + @ @ # o O + O O O # + O $ O o - - 1 - - 5 / f , l d 1 - = - 1 4 6 4 - - 1 - % + ",
"O O O o o O o .                 X X X O o o O o X - % # # + = Z u = y < + + + + # = - - + + + + + + ",
"4 3 = 4 > 4 4 > 4 4 > 8 4 ; 8 ; > = = 4 4 4 - % + 8 ; = 8 > 6 Z h 4 y , 8 > 8 > 8 ; - - ; 4 8 - $ + ",
"> > 3 j 0 0 j j 0 0 0 h 0 0 0 0 0 4 4 j 0 0 6 % + ; ; 4 0 0 h , 5 h , y 0 h 0 0 9 j 4 6 0 0 h 4 = + ",
"* 4 z J H H J J H H J H J H H H H M b H H J M - + = > c H H C , f A y s F H J H H H b M H J H b - + ",
"> j H 7 6 v c c b b b b b h c c x x x c c c M - + ; h H 7 7 h y f / , u C v h c c n j x c c c b - + ",
"> h H 7 7 v c c n b b b c z c c x x x c z c b 1 + 8 0 H 7 7 c a Z Z h c b v j c c j x x c z z M - + ",
"4 j H z z z x x x b b b b c b b M x x h 7 7 M - + 8 j J h c c j h l b b b b c b b b x n z 7 6 M - # ",
"> j J v z z x n b x x b b b b b b x c z 4 4 c = + ; h H c v h j i y x j b b b b b b c c h 8 4 b - # ",
"> j H z c z x x v x x b b b b b b c c z 4 4 c : @ 8 0 J v c z B u , d c b b b b b b c c z 4 4 z - + ",
"8 j J z z z z z x x c b D H b b b M b z 4 > c > = > 0 J h z c l s y g B M S H M b b b b z 4 4 v 4 - ",
"> 0 H z h z z z c v b b C M H S c c c c 7 7 x : @ > 0 H h z h l d a y p b C S D S b c v z 7 7 x - $ ",
"> 0 H k z z h z c b M b v v H H c x c c 7 7 c : @ > 0 H z h z l c c , u b b b H D c c c v 7 7 c - + ",
"> j J z c z 7 7 b b b b M b b b x z z c 7 7 b - + 8 0 H c c a , y b , u b b b b b x z z v h 7 b - + ",
"> j J c c c z z b b b b v b b v z z z c 7 7 v 3 @ 8 0 H c c a , s A s s b c b b v z z z z 7 7 v > % ",
"8 0 J z c b b b b b b z v z M v k z c z 7 7 z 6 = ; 9 J c c j , f / Z B c c c M v z c c k 7 7 c 4 - ",
"> j J v M b J H b z z z z z c c z z z v 7 7 c 4 - 8 h J b b C C V Z c h h h z c c z z h c 7 7 c 3 - ",
"4 0 H M b b D D b z z z h a z z a h h z 7 6 x 3 = ; 0 D b b M S C l z z h z z c z h h h z 7 6 v 4 = ",
"= 4 v v b v n x M z z z z z z z 7 7 7 > > 8 M : + - 3 b b b M x x M z z z h z z h 6 7 7 4 4 > M - + ",
"4 0 J v v x M b x x c 7 6 7 z 7 7 7 8 > = = b - + > 0 H b b x b M x x c 6 7 6 z h 7 7 6 > - = M - # ",
"> 0 J b v x v b x c c 7 7 6 z z 7 6 7 ; = - b : + 8 0 H c b x b b x c c 6 7 6 z h 7 6 7 > = * b ; # ",
"= 4 M 7 7 c c c c z z 7 7 6 z h 7 4 4 * = = b - + - 4 b 7 7 c c c c c z 6 7 7 z h 7 4 > = = * b - # ",
"- 4 b 7 7 8 7 h 7 7 7 4 3 - - - - = = * > > b 4 = = 4 b 7 7 8 7 7 7 7 6 8 : - - : : = = = > > M 4 = ",
"- 4 b 7 6 > 7 7 7 7 6 4 > - * * * = = * 4 4 b 4 - - 4 b 6 6 > 7 7 6 7 7 > : * - @ - * * = > 4 b 4 - ",
"= 6 b c c c c c b b b b v z M v b b b b b b x - + - 6 b b c c c c b b M M v c v M M b b M b b c - + ",
"- - - - - - - - 4 4 6 - - - - > 4 6 > - 1 ; = % + - - - - = - - : 6 > 4 > - - - ; 8 4 4 - 1 - - % + ",
"= = + + # + + $ - = - + + # + % - - - + + + + # + - = + + + + + @ = - - @ @ + @ @ - - - + + + + + + "
};
